# MagicaVoxel @ Ephtracy

# group
g blood_apple

# material
mtllib blood_apple.mtl
usemtl palette

# normals
vn -1 0 0
vn 1 0 0
vn 0 0 1
vn 0 0 -1
vn 0 -1 0
vn 0 1 0

# texcoords
vt 0.0332031 0.5
vt 0.814453 0.5
vt 0.845703 0.5
vt 0.849609 0.5

# verts
v -5 3 4.5
v -5 3 -3.5
v -5 9 4.5
v -5 9 -3.5
v -4 2 4.5
v -4 2 -3.5
v -4 3 5.5
v -4 3 4.5
v -4 3 -3.5
v -4 3 -4.5
v -4 4 5.5
v -4 4 4.5
v -4 7 5.5
v -4 7 4.5
v -4 8 5.5
v -4 8 4.5
v -4 9 5.5
v -4 9 4.5
v -4 9 -3.5
v -4 9 -4.5
v -4 10 4.5
v -4 10 -3.5
v -3 1 3.5
v -3 1 -2.5
v -3 2 3.5
v -3 2 -2.5
v -2 0 2.5
v -2 0 -1.5
v -2 1 2.5
v -2 1 -1.5
v -1 11 1.5
v -1 11 0.5
v -1 13 1.5
v -1 13 0.5
v 0 13 1.5
v 0 13 0.5
v 0 14 1.5
v 0 14 0.5
v 1 14 1.5
v 1 14 0.5
v 1 15 1.5
v 1 15 0.5
v 1 5 5.5
v 1 5 4.5
v 1 7 5.5
v 1 7 4.5
v 1 11 1.5
v 1 11 0.5
v 1 12 1.5
v 1 12 0.5
v 2 0 2.5
v 2 0 -1.5
v 2 1 2.5
v 2 1 -1.5
v 2 5 4.5
v 2 5 3.5
v 2 7 5.5
v 2 7 4.5
v 2 7 3.5
v 2 8 5.5
v 2 8 4.5
v 2 12 1.5
v 2 12 0.5
v 2 13 1.5
v 2 13 0.5
v 3 1 3.5
v 3 1 -2.5
v 3 2 3.5
v 3 2 -2.5
v 3 5 3.5
v 3 5 2.5
v 3 7 4.5
v 3 7 3.5
v 3 7 2.5
v 3 8 5.5
v 3 8 4.5
v 3 8 3.5
v 3 9 5.5
v 3 9 4.5
v 3 13 1.5
v 3 13 0.5
v 3 15 1.5
v 3 15 0.5
v 4 2 4.5
v 4 2 -3.5
v 4 3 5.5
v 4 3 4.5
v 4 3 -3.5
v 4 3 -4.5
v 4 5 5.5
v 4 5 4.5
v 4 5 2.5
v 4 5 1.5
v 4 7 3.5
v 4 7 2.5
v 4 7 1.5
v 4 8 4.5
v 4 8 3.5
v 4 8 2.5
v 4 9 3.5
v 4 9 -3.5
v 4 9 -4.5
v 4 10 4.5
v 4 10 -3.5
v 5 3 4.5
v 5 3 -3.5
v 5 5 4.5
v 5 5 1.5
v 5 7 2.5
v 5 7 1.5
v 5 8 3.5
v 5 8 2.5
v 5 9 3.5
v 5 9 -3.5
v -4 3 5.5
v -4 4 5.5
v -4 7 5.5
v -4 8 5.5
v -4 9 5.5
v -3 4 5.5
v -3 7 5.5
v -3 8 5.5
v -3 9 5.5
v 1 5 5.5
v 1 7 5.5
v 2 7 5.5
v 2 8 5.5
v 3 8 5.5
v 3 9 5.5
v 4 3 5.5
v 4 5 5.5
v -5 3 4.5
v -5 9 4.5
v -4 2 4.5
v -4 3 4.5
v -4 4 4.5
v -4 7 4.5
v -4 8 4.5
v -4 9 4.5
v -4 10 4.5
v -3 9 4.5
v 1 5 4.5
v 1 7 4.5
v 2 5 4.5
v 2 7 4.5
v 2 8 4.5
v 3 7 4.5
v 3 8 4.5
v 3 9 4.5
v 4 2 4.5
v 4 3 4.5
v 4 5 4.5
v 4 8 4.5
v 4 10 4.5
v 5 3 4.5
v 5 5 4.5
v -3 1 3.5
v -3 2 3.5
v 2 5 3.5
v 2 7 3.5
v 3 1 3.5
v 3 2 3.5
v 3 5 3.5
v 3 7 3.5
v 3 8 3.5
v 4 7 3.5
v 4 8 3.5
v 4 9 3.5
v 5 8 3.5
v 5 9 3.5
v -2 0 2.5
v -2 1 2.5
v 2 0 2.5
v 2 1 2.5
v 3 5 2.5
v 3 7 2.5
v 4 5 2.5
v 4 7 2.5
v 4 8 2.5
v 5 7 2.5
v 5 8 2.5
v -1 11 1.5
v -1 13 1.5
v 0 13 1.5
v 0 14 1.5
v 1 11 1.5
v 1 12 1.5
v 1 14 1.5
v 1 15 1.5
v 2 12 1.5
v 2 13 1.5
v 3 13 1.5
v 3 15 1.5
v 4 5 1.5
v 4 7 1.5
v 5 5 1.5
v 5 7 1.5
v -1 11 0.5
v -1 13 0.5
v 0 13 0.5
v 0 14 0.5
v 1 11 0.5
v 1 12 0.5
v 1 14 0.5
v 1 15 0.5
v 2 12 0.5
v 2 13 0.5
v 3 13 0.5
v 3 15 0.5
v -2 0 -1.5
v -2 1 -1.5
v 2 0 -1.5
v 2 1 -1.5
v -3 1 -2.5
v -3 2 -2.5
v 3 1 -2.5
v 3 2 -2.5
v -5 3 -3.5
v -5 9 -3.5
v -4 2 -3.5
v -4 3 -3.5
v -4 9 -3.5
v -4 10 -3.5
v 4 2 -3.5
v 4 3 -3.5
v 4 9 -3.5
v 4 10 -3.5
v 5 3 -3.5
v 5 9 -3.5
v -4 3 -4.5
v -4 9 -4.5
v 4 3 -4.5
v 4 9 -4.5
v -2 0 2.5
v 2 0 2.5
v -2 0 -1.5
v 2 0 -1.5
v -3 1 3.5
v 3 1 3.5
v -2 1 2.5
v 2 1 2.5
v -2 1 -1.5
v 2 1 -1.5
v -3 1 -2.5
v 3 1 -2.5
v -4 2 4.5
v 4 2 4.5
v -3 2 3.5
v 3 2 3.5
v -3 2 -2.5
v 3 2 -2.5
v -4 2 -3.5
v 4 2 -3.5
v -4 3 5.5
v 4 3 5.5
v -5 3 4.5
v -4 3 4.5
v 4 3 4.5
v 5 3 4.5
v -5 3 -3.5
v -4 3 -3.5
v 4 3 -3.5
v 5 3 -3.5
v -4 3 -4.5
v 4 3 -4.5
v 1 7 5.5
v 2 7 5.5
v 1 7 4.5
v 2 7 4.5
v 3 7 4.5
v 2 7 3.5
v 3 7 3.5
v 4 7 3.5
v 3 7 2.5
v 4 7 2.5
v 5 7 2.5
v 4 7 1.5
v 5 7 1.5
v 2 8 5.5
v 3 8 5.5
v 2 8 4.5
v 3 8 4.5
v 4 8 4.5
v 3 8 3.5
v 4 8 3.5
v 5 8 3.5
v 4 8 2.5
v 5 8 2.5
v -1 11 1.5
v 1 11 1.5
v -1 11 0.5
v 1 11 0.5
v 1 12 1.5
v 2 12 1.5
v 1 12 0.5
v 2 12 0.5
v 2 13 1.5
v 3 13 1.5
v 2 13 0.5
v 3 13 0.5
v 1 5 5.5
v 4 5 5.5
v 1 5 4.5
v 2 5 4.5
v 4 5 4.5
v 5 5 4.5
v 2 5 3.5
v 3 5 3.5
v 3 5 2.5
v 4 5 2.5
v 4 5 1.5
v 5 5 1.5
v -4 9 5.5
v -3 9 5.5
v 3 9 5.5
v -5 9 4.5
v -4 9 4.5
v -3 9 4.5
v 3 9 4.5
v 4 9 3.5
v 5 9 3.5
v -5 9 -3.5
v -4 9 -3.5
v 4 9 -3.5
v 5 9 -3.5
v -4 9 -4.5
v 4 9 -4.5
v -4 10 4.5
v 4 10 4.5
v -4 10 -3.5
v 4 10 -3.5
v -1 13 1.5
v 0 13 1.5
v -1 13 0.5
v 0 13 0.5
v 0 14 1.5
v 1 14 1.5
v 0 14 0.5
v 1 14 0.5
v 1 15 1.5
v 3 15 1.5
v 1 15 0.5
v 3 15 0.5

# faces
f 3/4/1 2/4/1 1/4/1
f 4/4/1 2/4/1 3/4/1
f 8/4/1 6/4/1 5/4/1
f 9/4/1 6/4/1 8/4/1
f 11/4/1 8/4/1 7/4/1
f 12/4/1 8/4/1 11/4/1
f 13/3/1 12/3/1 11/3/1
f 14/3/1 12/3/1 13/3/1
f 15/4/1 14/4/1 13/4/1
f 16/4/1 14/4/1 15/4/1
f 17/3/1 16/3/1 15/3/1
f 18/3/1 16/3/1 17/3/1
f 19/4/1 10/4/1 9/4/1
f 20/4/1 10/4/1 19/4/1
f 21/4/1 19/4/1 18/4/1
f 22/4/1 19/4/1 21/4/1
f 25/4/1 24/4/1 23/4/1
f 26/4/1 24/4/1 25/4/1
f 29/4/1 28/4/1 27/4/1
f 30/4/1 28/4/1 29/4/1
f 33/2/1 32/2/1 31/2/1
f 34/2/1 32/2/1 33/2/1
f 37/2/1 36/2/1 35/2/1
f 38/2/1 36/2/1 37/2/1
f 41/2/1 40/2/1 39/2/1
f 42/2/1 40/2/1 41/2/1
f 43/4/2 44/4/2 45/4/2
f 45/4/2 44/4/2 46/4/2
f 47/2/2 48/2/2 49/2/2
f 49/2/2 48/2/2 50/2/2
f 51/4/2 52/4/2 53/4/2
f 53/4/2 52/4/2 54/4/2
f 55/1/2 56/1/2 58/1/2
f 58/1/2 56/1/2 59/1/2
f 57/4/2 58/4/2 60/4/2
f 60/4/2 58/4/2 61/4/2
f 62/2/2 63/2/2 64/2/2
f 64/2/2 63/2/2 65/2/2
f 66/4/2 67/4/2 68/4/2
f 68/4/2 67/4/2 69/4/2
f 70/1/2 71/1/2 73/1/2
f 73/1/2 71/1/2 74/1/2
f 72/1/2 73/1/2 76/1/2
f 76/1/2 73/1/2 77/1/2
f 75/4/2 76/4/2 78/4/2
f 78/4/2 76/4/2 79/4/2
f 80/2/2 81/2/2 82/2/2
f 82/2/2 81/2/2 83/2/2
f 84/4/2 85/4/2 87/4/2
f 87/4/2 85/4/2 88/4/2
f 86/4/2 87/4/2 90/4/2
f 90/4/2 87/4/2 91/4/2
f 92/1/2 93/1/2 95/1/2
f 95/1/2 93/1/2 96/1/2
f 94/1/2 95/1/2 98/1/2
f 98/1/2 95/1/2 99/1/2
f 97/4/2 98/4/2 100/4/2
f 88/4/2 89/4/2 101/4/2
f 101/4/2 89/4/2 102/4/2
f 97/4/2 100/4/2 103/4/2
f 100/4/2 101/4/2 103/4/2
f 103/4/2 101/4/2 104/4/2
f 105/4/2 106/4/2 107/4/2
f 107/4/2 106/4/2 108/4/2
f 108/4/2 106/4/2 110/4/2
f 109/4/2 110/4/2 112/4/2
f 111/4/2 112/4/2 113/4/2
f 110/4/2 106/4/2 114/4/2
f 113/4/2 112/4/2 114/4/2
f 112/4/2 110/4/2 114/4/2
f 120/4/3 116/4/3 115/4/3
f 120/3/3 117/3/3 116/3/3
f 121/4/3 118/4/3 117/4/3
f 121/3/3 117/3/3 120/3/3
f 122/3/3 119/3/3 118/3/3
f 122/4/3 118/4/3 121/4/3
f 123/3/3 119/3/3 122/3/3
f 124/4/3 121/4/3 120/4/3
f 124/4/3 122/4/3 121/4/3
f 124/4/3 123/4/3 122/4/3
f 125/4/3 123/4/3 124/4/3
f 126/4/3 123/4/3 125/4/3
f 127/4/3 123/4/3 126/4/3
f 128/4/3 123/4/3 127/4/3
f 129/4/3 123/4/3 128/4/3
f 130/4/3 120/4/3 115/4/3
f 130/4/3 124/4/3 120/4/3
f 131/4/3 124/4/3 130/4/3
f 135/4/3 133/4/3 132/4/3
f 136/4/3 133/4/3 135/4/3
f 137/4/3 133/4/3 136/4/3
f 138/4/3 133/4/3 137/4/3
f 139/4/3 133/4/3 138/4/3
f 141/4/3 140/4/3 139/4/3
f 144/1/3 143/1/3 142/1/3
f 145/1/3 143/1/3 144/1/3
f 147/1/3 146/1/3 145/1/3
f 148/1/3 146/1/3 147/1/3
f 149/4/3 140/4/3 141/4/3
f 150/4/3 135/4/3 134/4/3
f 151/4/3 135/4/3 150/4/3
f 153/4/3 149/4/3 148/4/3
f 154/4/3 140/4/3 149/4/3
f 154/4/3 149/4/3 153/4/3
f 155/4/3 152/4/3 151/4/3
f 156/4/3 152/4/3 155/4/3
f 161/4/3 158/4/3 157/4/3
f 162/4/3 158/4/3 161/4/3
f 163/1/3 160/1/3 159/1/3
f 164/1/3 160/1/3 163/1/3
f 166/1/3 165/1/3 164/1/3
f 167/1/3 165/1/3 166/1/3
f 169/4/3 168/4/3 167/4/3
f 170/4/3 168/4/3 169/4/3
f 173/4/3 172/4/3 171/4/3
f 174/4/3 172/4/3 173/4/3
f 177/1/3 176/1/3 175/1/3
f 178/1/3 176/1/3 177/1/3
f 180/4/3 179/4/3 178/4/3
f 181/4/3 179/4/3 180/4/3
f 184/2/3 183/2/3 182/2/3
f 186/2/3 184/2/3 182/2/3
f 186/2/3 185/2/3 184/2/3
f 187/2/3 185/2/3 186/2/3
f 188/2/3 185/2/3 187/2/3
f 190/2/3 189/2/3 188/2/3
f 190/2/3 188/2/3 187/2/3
f 191/2/3 189/2/3 190/2/3
f 192/2/3 189/2/3 191/2/3
f 193/2/3 189/2/3 192/2/3
f 196/4/3 195/4/3 194/4/3
f 197/4/3 195/4/3 196/4/3
f 198/2/4 199/2/4 200/2/4
f 198/2/4 200/2/4 202/2/4
f 200/2/4 201/2/4 202/2/4
f 202/2/4 201/2/4 203/2/4
f 203/2/4 201/2/4 204/2/4
f 204/2/4 205/2/4 206/2/4
f 203/2/4 204/2/4 206/2/4
f 206/2/4 205/2/4 207/2/4
f 207/2/4 205/2/4 208/2/4
f 208/2/4 205/2/4 209/2/4
f 210/4/4 211/4/4 212/4/4
f 212/4/4 211/4/4 213/4/4
f 214/4/4 215/4/4 216/4/4
f 216/4/4 215/4/4 217/4/4
f 218/4/4 219/4/4 221/4/4
f 221/4/4 219/4/4 222/4/4
f 220/4/4 221/4/4 224/4/4
f 224/4/4 221/4/4 225/4/4
f 222/4/4 223/4/4 226/4/4
f 226/4/4 223/4/4 227/4/4
f 225/4/4 226/4/4 228/4/4
f 228/4/4 226/4/4 229/4/4
f 230/4/4 231/4/4 232/4/4
f 232/4/4 231/4/4 233/4/4
f 236/4/5 235/4/5 234/4/5
f 237/4/5 235/4/5 236/4/5
f 240/4/5 239/4/5 238/4/5
f 241/4/5 239/4/5 240/4/5
f 242/4/5 240/4/5 238/4/5
f 243/4/5 239/4/5 241/4/5
f 244/4/5 242/4/5 238/4/5
f 244/4/5 243/4/5 242/4/5
f 245/4/5 239/4/5 243/4/5
f 245/4/5 243/4/5 244/4/5
f 248/4/5 247/4/5 246/4/5
f 249/4/5 247/4/5 248/4/5
f 250/4/5 248/4/5 246/4/5
f 251/4/5 247/4/5 249/4/5
f 252/4/5 250/4/5 246/4/5
f 252/4/5 251/4/5 250/4/5
f 253/4/5 247/4/5 251/4/5
f 253/4/5 251/4/5 252/4/5
f 257/4/5 255/4/5 254/4/5
f 258/4/5 255/4/5 257/4/5
f 260/4/5 257/4/5 256/4/5
f 261/4/5 257/4/5 260/4/5
f 262/4/5 259/4/5 258/4/5
f 263/4/5 259/4/5 262/4/5
f 264/4/5 262/4/5 261/4/5
f 265/4/5 262/4/5 264/4/5
f 268/4/5 267/4/5 266/4/5
f 269/4/5 267/4/5 268/4/5
f 271/1/5 270/1/5 269/1/5
f 272/1/5 270/1/5 271/1/5
f 274/1/5 273/1/5 272/1/5
f 275/1/5 273/1/5 274/1/5
f 277/4/5 276/4/5 275/4/5
f 278/4/5 276/4/5 277/4/5
f 281/4/5 280/4/5 279/4/5
f 282/4/5 280/4/5 281/4/5
f 284/4/5 283/4/5 282/4/5
f 285/4/5 283/4/5 284/4/5
f 287/4/5 286/4/5 285/4/5
f 288/4/5 286/4/5 287/4/5
f 291/2/5 290/2/5 289/2/5
f 292/2/5 290/2/5 291/2/5
f 295/2/5 294/2/5 293/2/5
f 296/2/5 294/2/5 295/2/5
f 299/2/5 298/2/5 297/2/5
f 300/2/5 298/2/5 299/2/5
f 301/4/6 302/4/6 303/4/6
f 303/4/6 302/4/6 304/4/6
f 304/4/6 302/4/6 305/4/6
f 305/4/6 306/4/6 307/4/6
f 304/4/6 305/4/6 307/4/6
f 307/4/6 306/4/6 308/4/6
f 308/4/6 306/4/6 309/4/6
f 309/4/6 306/4/6 310/4/6
f 310/4/6 306/4/6 311/4/6
f 311/4/6 306/4/6 312/4/6
f 313/3/6 314/3/6 317/3/6
f 314/4/6 315/4/6 318/4/6
f 317/3/6 314/3/6 318/3/6
f 318/4/6 315/4/6 319/4/6
f 316/4/6 317/4/6 322/4/6
f 322/4/6 317/4/6 323/4/6
f 320/4/6 321/4/6 324/4/6
f 324/4/6 321/4/6 325/4/6
f 323/4/6 324/4/6 326/4/6
f 326/4/6 324/4/6 327/4/6
f 328/4/6 329/4/6 330/4/6
f 330/4/6 329/4/6 331/4/6
f 332/2/6 333/2/6 334/2/6
f 334/2/6 333/2/6 335/2/6
f 336/2/6 337/2/6 338/2/6
f 338/2/6 337/2/6 339/2/6
f 340/2/6 341/2/6 342/2/6
f 342/2/6 341/2/6 343/2/6
