# MagicaVoxel @ Ephtracy

# group
g brave_hammer

# material
mtllib brave_hammer.mtl
usemtl palette

# normals
vn -1 0 0
vn 1 0 0
vn 0 0 1
vn 0 0 -1
vn 0 -1 0
vn 0 1 0

# texcoords
vt 0.306641 0.5
vt 0.341797 0.5
vt 0.373047 0.5
vt 0.533203 0.5
vt 0.857422 0.5
vt 0.962891 0.5
vt 0.970703 0.5
vt 0.982422 0.5

# verts
v -9 3 19
v -9 3 4
v -9 37 19
v -9 37 4
v -8 1 18
v -8 1 17
v -8 1 16
v -8 1 8
v -8 1 7
v -8 1 6
v -8 1 5
v -8 2 18
v -8 2 17
v -8 2 16
v -8 2 8
v -8 2 7
v -8 2 6
v -8 2 5
v -8 3 18
v -8 3 17
v -8 3 7
v -8 3 6
v -8 3 5
v -8 37 18
v -8 37 17
v -8 37 7
v -8 37 6
v -8 37 5
v -8 38 18
v -8 38 17
v -8 38 16
v -8 38 8
v -8 38 7
v -8 38 6
v -8 38 5
v -8 39 18
v -8 39 17
v -8 39 16
v -8 39 8
v -8 39 7
v -8 39 6
v -8 39 5
v -3 17 20
v -3 17 19
v -3 17 4
v -3 17 3
v -3 17 2
v -3 17 -1
v -3 17 -2
v -3 17 -5
v -3 17 -6
v -3 17 -9
v -3 17 -10
v -3 17 -13
v -3 17 -14
v -3 17 -17
v -3 17 -18
v -3 17 -20
v -3 23 20
v -3 23 19
v -3 23 4
v -3 23 3
v -3 23 2
v -3 23 -1
v -3 23 -2
v -3 23 -5
v -3 23 -6
v -3 23 -9
v -3 23 -10
v -3 23 -13
v -3 23 -14
v -3 23 -17
v -3 23 -18
v -3 23 -20
v -2 18 3
v -2 18 2
v -2 18 -17
v -2 18 -18
v -2 22 3
v -2 22 2
v -2 22 -17
v -2 22 -18
v 2 18 3
v 2 18 2
v 2 18 -17
v 2 18 -18
v 2 22 3
v 2 22 2
v 2 22 -17
v 2 22 -18
v 3 17 20
v 3 17 19
v 3 17 4
v 3 17 3
v 3 17 2
v 3 17 -1
v 3 17 -2
v 3 17 -5
v 3 17 -6
v 3 17 -9
v 3 17 -10
v 3 17 -13
v 3 17 -14
v 3 17 -17
v 3 17 -18
v 3 17 -20
v 3 23 20
v 3 23 19
v 3 23 4
v 3 23 3
v 3 23 2
v 3 23 -1
v 3 23 -2
v 3 23 -5
v 3 23 -6
v 3 23 -9
v 3 23 -10
v 3 23 -13
v 3 23 -14
v 3 23 -17
v 3 23 -18
v 3 23 -20
v 8 1 18
v 8 1 17
v 8 1 7
v 8 1 6
v 8 1 5
v 8 2 18
v 8 2 17
v 8 2 7
v 8 2 6
v 8 2 5
v 8 3 18
v 8 3 6
v 8 3 5
v 8 37 18
v 8 37 7
v 8 37 6
v 8 37 5
v 8 38 7
v 8 38 6
v 8 38 5
v 8 39 18
v 8 39 6
v 8 39 5
v 9 3 19
v 9 3 4
v 9 37 19
v 9 37 4
v -3 17 20
v -3 23 20
v 3 17 20
v 3 23 20
v -9 3 19
v -9 37 19
v -3 17 19
v -3 23 19
v 3 17 19
v 3 23 19
v 9 3 19
v 9 37 19
v -8 1 18
v -8 2 18
v -8 3 18
v -8 37 18
v -8 38 18
v -8 39 18
v -7 2 18
v -7 3 18
v -7 37 18
v -7 38 18
v -7 39 18
v -6 37 18
v -6 38 18
v -6 39 18
v -5 37 18
v -5 38 18
v 7 1 18
v 7 2 18
v 8 1 18
v 8 2 18
v 8 3 18
v 8 37 18
v 8 39 18
v -3 17 2
v -3 23 2
v -2 18 2
v -2 22 2
v 2 18 2
v 2 22 2
v 3 17 2
v 3 23 2
v -3 17 -18
v -3 23 -18
v -2 18 -18
v -2 22 -18
v 2 18 -18
v 2 22 -18
v 3 17 -18
v 3 23 -18
v -8 1 5
v -8 2 5
v -8 3 5
v -8 37 5
v -8 38 5
v -8 39 5
v -7 1 5
v -7 2 5
v -7 37 5
v -7 38 5
v -7 39 5
v -6 37 5
v -6 38 5
v 7 2 5
v 7 3 5
v 7 38 5
v 7 39 5
v 8 1 5
v 8 2 5
v 8 3 5
v 8 37 5
v 8 38 5
v 8 39 5
v -9 3 4
v -9 37 4
v -3 17 4
v -3 23 4
v 3 17 4
v 3 23 4
v 9 3 4
v 9 37 4
v -3 17 3
v -3 23 3
v -2 18 3
v -2 22 3
v 2 18 3
v 2 22 3
v 3 17 3
v 3 23 3
v -3 17 -17
v -3 23 -17
v -2 18 -17
v -2 22 -17
v 2 18 -17
v 2 22 -17
v 3 17 -17
v 3 23 -17
v -3 17 -20
v -3 23 -20
v 3 17 -20
v 3 23 -20
v -8 1 18
v 7 1 18
v 8 1 18
v -8 1 17
v -7 1 17
v 7 1 17
v 8 1 17
v -8 1 16
v -7 1 16
v -8 1 8
v -7 1 8
v -8 1 7
v -7 1 7
v -6 1 7
v 7 1 7
v 8 1 7
v -8 1 6
v -7 1 6
v -6 1 6
v 7 1 6
v 8 1 6
v -8 1 5
v -7 1 5
v 8 1 5
v -9 3 19
v 9 3 19
v -8 3 18
v -7 3 18
v 8 3 18
v -8 3 17
v -8 3 7
v -8 3 6
v 8 3 6
v -8 3 5
v 7 3 5
v 8 3 5
v -9 3 4
v 9 3 4
v -3 17 20
v 3 17 20
v -3 17 19
v 3 17 19
v -3 17 4
v 3 17 4
v -3 17 3
v 3 17 3
v -3 17 2
v 3 17 2
v -3 17 -1
v 3 17 -1
v -3 17 -2
v 3 17 -2
v -3 17 -5
v 3 17 -5
v -3 17 -6
v 3 17 -6
v -3 17 -9
v 3 17 -9
v -3 17 -10
v 3 17 -10
v -3 17 -13
v 3 17 -13
v -3 17 -14
v 3 17 -14
v -3 17 -17
v 3 17 -17
v -3 17 -18
v 3 17 -18
v -3 17 -20
v 3 17 -20
v -2 18 3
v 2 18 3
v -2 18 2
v 2 18 2
v -2 18 -17
v 2 18 -17
v -2 18 -18
v 2 18 -18
v -2 22 3
v 2 22 3
v -2 22 2
v 2 22 2
v -2 22 -17
v 2 22 -17
v -2 22 -18
v 2 22 -18
v -3 23 20
v 3 23 20
v -3 23 19
v 3 23 19
v -3 23 4
v 3 23 4
v -3 23 3
v 3 23 3
v -3 23 2
v 3 23 2
v -3 23 -1
v 3 23 -1
v -3 23 -2
v 3 23 -2
v -3 23 -5
v 3 23 -5
v -3 23 -6
v 3 23 -6
v -3 23 -9
v 3 23 -9
v -3 23 -10
v 3 23 -10
v -3 23 -13
v 3 23 -13
v -3 23 -14
v 3 23 -14
v -3 23 -17
v 3 23 -17
v -3 23 -18
v 3 23 -18
v -3 23 -20
v 3 23 -20
v -9 37 19
v 9 37 19
v -8 37 18
v -7 37 18
v -6 37 18
v -5 37 18
v 8 37 18
v -8 37 17
v -8 37 7
v 8 37 7
v -8 37 6
v 8 37 6
v -8 37 5
v -7 37 5
v -6 37 5
v 8 37 5
v -9 37 4
v 9 37 4
v -8 39 18
v -7 39 18
v -6 39 18
v 8 39 18
v -8 39 17
v -7 39 17
v -6 39 17
v -8 39 16
v -7 39 16
v -8 39 8
v -7 39 8
v -8 39 7
v -7 39 7
v -8 39 6
v -7 39 6
v 7 39 6
v 8 39 6
v -8 39 5
v -7 39 5
v 7 39 5
v 8 39 5

# faces
f 3/2/1 2/2/1 1/2/1
f 4/2/1 2/2/1 3/2/1
f 12/7/1 6/7/1 5/7/1
f 13/6/1 7/6/1 6/6/1
f 13/7/1 6/7/1 12/7/1
f 14/7/1 8/7/1 7/7/1
f 14/6/1 7/6/1 13/6/1
f 15/6/1 9/6/1 8/6/1
f 15/7/1 8/7/1 14/7/1
f 16/7/1 10/7/1 9/7/1
f 16/6/1 9/6/1 15/6/1
f 17/6/1 11/6/1 10/6/1
f 17/7/1 10/7/1 16/7/1
f 18/6/1 11/6/1 17/6/1
f 19/6/1 13/6/1 12/6/1
f 20/7/1 16/7/1 15/7/1
f 20/6/1 13/6/1 19/6/1
f 20/7/1 14/7/1 13/7/1
f 20/7/1 15/7/1 14/7/1
f 21/6/1 17/6/1 16/6/1
f 21/7/1 16/7/1 20/7/1
f 22/7/1 18/7/1 17/7/1
f 22/6/1 17/6/1 21/6/1
f 23/7/1 18/7/1 22/7/1
f 29/6/1 25/6/1 24/6/1
f 30/7/1 26/7/1 25/7/1
f 30/6/1 25/6/1 29/6/1
f 31/7/1 26/7/1 30/7/1
f 32/7/1 26/7/1 31/7/1
f 33/6/1 27/6/1 26/6/1
f 33/7/1 26/7/1 32/7/1
f 34/7/1 28/7/1 27/7/1
f 34/6/1 27/6/1 33/6/1
f 35/7/1 28/7/1 34/7/1
f 36/7/1 30/7/1 29/7/1
f 37/6/1 31/6/1 30/6/1
f 37/7/1 30/7/1 36/7/1
f 38/7/1 32/7/1 31/7/1
f 38/6/1 31/6/1 37/6/1
f 39/6/1 33/6/1 32/6/1
f 39/7/1 32/7/1 38/7/1
f 40/7/1 34/7/1 33/7/1
f 40/6/1 33/6/1 39/6/1
f 41/6/1 35/6/1 34/6/1
f 41/7/1 34/7/1 40/7/1
f 42/6/1 35/6/1 41/6/1
f 59/3/1 44/3/1 43/3/1
f 60/3/1 44/3/1 59/3/1
f 61/3/1 46/3/1 45/3/1
f 62/3/1 46/3/1 61/3/1
f 63/4/1 48/4/1 47/4/1
f 64/5/1 49/5/1 48/5/1
f 64/4/1 48/4/1 63/4/1
f 65/4/1 50/4/1 49/4/1
f 65/5/1 49/5/1 64/5/1
f 66/5/1 51/5/1 50/5/1
f 66/4/1 50/4/1 65/4/1
f 67/4/1 52/4/1 51/4/1
f 67/5/1 51/5/1 66/5/1
f 68/5/1 53/5/1 52/5/1
f 68/4/1 52/4/1 67/4/1
f 69/4/1 54/4/1 53/4/1
f 69/5/1 53/5/1 68/5/1
f 70/5/1 55/5/1 54/5/1
f 70/4/1 54/4/1 69/4/1
f 71/4/1 56/4/1 55/4/1
f 71/5/1 55/5/1 70/5/1
f 72/4/1 56/4/1 71/4/1
f 73/3/1 58/3/1 57/3/1
f 74/3/1 58/3/1 73/3/1
f 79/8/1 76/8/1 75/8/1
f 80/8/1 76/8/1 79/8/1
f 81/8/1 78/8/1 77/8/1
f 82/8/1 78/8/1 81/8/1
f 83/8/2 84/8/2 87/8/2
f 87/8/2 84/8/2 88/8/2
f 85/8/2 86/8/2 89/8/2
f 89/8/2 86/8/2 90/8/2
f 91/3/2 92/3/2 107/3/2
f 107/3/2 92/3/2 108/3/2
f 93/3/2 94/3/2 109/3/2
f 109/3/2 94/3/2 110/3/2
f 95/4/2 96/4/2 111/4/2
f 96/5/2 97/5/2 112/5/2
f 111/4/2 96/4/2 112/4/2
f 97/4/2 98/4/2 113/4/2
f 112/5/2 97/5/2 113/5/2
f 98/5/2 99/5/2 114/5/2
f 113/4/2 98/4/2 114/4/2
f 99/4/2 100/4/2 115/4/2
f 114/5/2 99/5/2 115/5/2
f 100/5/2 101/5/2 116/5/2
f 115/4/2 100/4/2 116/4/2
f 101/4/2 102/4/2 117/4/2
f 116/5/2 101/5/2 117/5/2
f 102/5/2 103/5/2 118/5/2
f 117/4/2 102/4/2 118/4/2
f 103/4/2 104/4/2 119/4/2
f 118/5/2 103/5/2 119/5/2
f 119/4/2 104/4/2 120/4/2
f 105/3/2 106/3/2 121/3/2
f 121/3/2 106/3/2 122/3/2
f 123/6/2 124/6/2 128/6/2
f 124/7/2 125/7/2 129/7/2
f 128/6/2 124/6/2 129/6/2
f 125/6/2 126/6/2 130/6/2
f 129/7/2 125/7/2 130/7/2
f 126/7/2 127/7/2 131/7/2
f 130/6/2 126/6/2 131/6/2
f 131/7/2 127/7/2 132/7/2
f 129/7/2 130/7/2 133/7/2
f 128/7/2 129/7/2 133/7/2
f 130/7/2 131/7/2 133/7/2
f 131/6/2 132/6/2 134/6/2
f 133/7/2 131/7/2 134/7/2
f 134/6/2 132/6/2 135/6/2
f 136/7/2 137/7/2 140/7/2
f 137/6/2 138/6/2 140/6/2
f 138/7/2 139/7/2 141/7/2
f 140/6/2 138/6/2 141/6/2
f 141/7/2 139/7/2 142/7/2
f 136/7/2 140/7/2 143/7/2
f 140/7/2 141/7/2 143/7/2
f 141/6/2 142/6/2 144/6/2
f 143/7/2 141/7/2 144/7/2
f 144/6/2 142/6/2 145/6/2
f 146/2/2 147/2/2 148/2/2
f 148/2/2 147/2/2 149/2/2
f 152/3/3 151/3/3 150/3/3
f 153/3/3 151/3/3 152/3/3
f 156/2/3 155/2/3 154/2/3
f 157/2/3 155/2/3 156/2/3
f 158/2/3 156/2/3 154/2/3
f 159/2/3 155/2/3 157/2/3
f 160/2/3 158/2/3 154/2/3
f 160/2/3 159/2/3 158/2/3
f 161/2/3 155/2/3 159/2/3
f 161/2/3 159/2/3 160/2/3
f 168/7/3 163/7/3 162/7/3
f 168/6/3 164/6/3 163/6/3
f 169/6/3 164/6/3 168/6/3
f 170/6/3 166/6/3 165/6/3
f 171/7/3 167/7/3 166/7/3
f 171/6/3 166/6/3 170/6/3
f 172/7/3 167/7/3 171/7/3
f 173/7/3 171/7/3 170/7/3
f 174/6/3 172/6/3 171/6/3
f 174/7/3 171/7/3 173/7/3
f 175/6/3 172/6/3 174/6/3
f 176/6/3 174/6/3 173/6/3
f 177/7/3 175/7/3 174/7/3
f 177/6/3 174/6/3 176/6/3
f 178/7/3 169/7/3 168/7/3
f 178/7/3 168/7/3 162/7/3
f 179/7/3 169/7/3 178/7/3
f 180/6/3 179/6/3 178/6/3
f 181/7/3 169/7/3 179/7/3
f 181/6/3 179/6/3 180/6/3
f 182/7/3 169/7/3 181/7/3
f 183/7/3 177/7/3 176/7/3
f 184/7/3 175/7/3 177/7/3
f 184/7/3 177/7/3 183/7/3
f 187/4/3 186/4/3 185/4/3
f 188/4/3 186/4/3 187/4/3
f 189/4/3 187/4/3 185/4/3
f 190/4/3 186/4/3 188/4/3
f 191/4/3 189/4/3 185/4/3
f 191/4/3 190/4/3 189/4/3
f 192/4/3 186/4/3 190/4/3
f 192/4/3 190/4/3 191/4/3
f 195/3/3 194/3/3 193/3/3
f 196/3/3 194/3/3 195/3/3
f 197/3/3 195/3/3 193/3/3
f 198/3/3 194/3/3 196/3/3
f 199/3/3 197/3/3 193/3/3
f 199/3/3 198/3/3 197/3/3
f 200/3/3 194/3/3 198/3/3
f 200/3/3 198/3/3 199/3/3
f 201/6/4 202/6/4 207/6/4
f 202/7/4 203/7/4 208/7/4
f 207/6/4 202/6/4 208/6/4
f 204/7/4 205/7/4 209/7/4
f 205/6/4 206/6/4 210/6/4
f 209/7/4 205/7/4 210/7/4
f 210/6/4 206/6/4 211/6/4
f 209/6/4 210/6/4 212/6/4
f 210/7/4 211/7/4 213/7/4
f 212/6/4 210/6/4 213/6/4
f 208/7/4 203/7/4 214/7/4
f 207/7/4 208/7/4 214/7/4
f 214/7/4 203/7/4 215/7/4
f 213/7/4 211/7/4 216/7/4
f 212/7/4 213/7/4 216/7/4
f 216/7/4 211/7/4 217/7/4
f 207/7/4 214/7/4 218/7/4
f 214/6/4 215/6/4 219/6/4
f 218/7/4 214/7/4 219/7/4
f 219/6/4 215/6/4 220/6/4
f 212/7/4 216/7/4 221/7/4
f 216/6/4 217/6/4 222/6/4
f 221/7/4 216/7/4 222/7/4
f 222/6/4 217/6/4 223/6/4
f 224/2/4 225/2/4 226/2/4
f 226/2/4 225/2/4 227/2/4
f 224/2/4 226/2/4 228/2/4
f 227/2/4 225/2/4 229/2/4
f 224/2/4 228/2/4 230/2/4
f 228/2/4 229/2/4 230/2/4
f 229/2/4 225/2/4 231/2/4
f 230/2/4 229/2/4 231/2/4
f 232/3/4 233/3/4 234/3/4
f 234/3/4 233/3/4 235/3/4
f 232/3/4 234/3/4 236/3/4
f 235/3/4 233/3/4 237/3/4
f 232/3/4 236/3/4 238/3/4
f 236/3/4 237/3/4 238/3/4
f 237/3/4 233/3/4 239/3/4
f 238/3/4 237/3/4 239/3/4
f 240/4/4 241/4/4 242/4/4
f 242/4/4 241/4/4 243/4/4
f 240/4/4 242/4/4 244/4/4
f 243/4/4 241/4/4 245/4/4
f 240/4/4 244/4/4 246/4/4
f 244/4/4 245/4/4 246/4/4
f 245/4/4 241/4/4 247/4/4
f 246/4/4 245/4/4 247/4/4
f 248/3/4 249/3/4 250/3/4
f 250/3/4 249/3/4 251/3/4
f 255/7/5 253/7/5 252/7/5
f 256/7/5 253/7/5 255/7/5
f 257/6/5 254/6/5 253/6/5
f 257/7/5 253/7/5 256/7/5
f 258/6/5 254/6/5 257/6/5
f 259/6/5 256/6/5 255/6/5
f 260/7/5 257/7/5 256/7/5
f 260/6/5 256/6/5 259/6/5
f 260/7/5 258/7/5 257/7/5
f 261/7/5 260/7/5 259/7/5
f 262/7/5 258/7/5 260/7/5
f 262/7/5 260/7/5 261/7/5
f 263/6/5 262/6/5 261/6/5
f 264/7/5 258/7/5 262/7/5
f 264/6/5 262/6/5 263/6/5
f 265/7/5 258/7/5 264/7/5
f 266/7/5 258/7/5 265/7/5
f 267/7/5 258/7/5 266/7/5
f 268/7/5 264/7/5 263/7/5
f 269/6/5 265/6/5 264/6/5
f 269/7/5 264/7/5 268/7/5
f 270/7/5 266/7/5 265/7/5
f 270/6/5 265/6/5 269/6/5
f 271/6/5 267/6/5 266/6/5
f 271/7/5 266/7/5 270/7/5
f 272/6/5 267/6/5 271/6/5
f 273/6/5 269/6/5 268/6/5
f 274/7/5 270/7/5 269/7/5
f 274/6/5 269/6/5 273/6/5
f 274/7/5 271/7/5 270/7/5
f 274/7/5 272/7/5 271/7/5
f 275/7/5 272/7/5 274/7/5
f 278/2/5 277/2/5 276/2/5
f 279/2/5 277/2/5 278/2/5
f 280/2/5 277/2/5 279/2/5
f 281/2/5 278/2/5 276/2/5
f 282/2/5 281/2/5 276/2/5
f 283/2/5 282/2/5 276/2/5
f 284/2/5 277/2/5 280/2/5
f 285/2/5 283/2/5 276/2/5
f 287/2/5 277/2/5 284/2/5
f 288/2/5 286/2/5 285/2/5
f 288/2/5 287/2/5 286/2/5
f 288/2/5 285/2/5 276/2/5
f 289/2/5 277/2/5 287/2/5
f 289/2/5 287/2/5 288/2/5
f 292/3/5 291/3/5 290/3/5
f 293/3/5 291/3/5 292/3/5
f 296/3/5 295/3/5 294/3/5
f 297/3/5 295/3/5 296/3/5
f 300/4/5 299/4/5 298/4/5
f 301/4/5 299/4/5 300/4/5
f 302/5/5 301/5/5 300/5/5
f 303/5/5 301/5/5 302/5/5
f 304/4/5 303/4/5 302/4/5
f 305/4/5 303/4/5 304/4/5
f 306/5/5 305/5/5 304/5/5
f 307/5/5 305/5/5 306/5/5
f 308/4/5 307/4/5 306/4/5
f 309/4/5 307/4/5 308/4/5
f 310/5/5 309/5/5 308/5/5
f 311/5/5 309/5/5 310/5/5
f 312/4/5 311/4/5 310/4/5
f 313/4/5 311/4/5 312/4/5
f 314/5/5 313/5/5 312/5/5
f 315/5/5 313/5/5 314/5/5
f 316/4/5 315/4/5 314/4/5
f 317/4/5 315/4/5 316/4/5
f 320/3/5 319/3/5 318/3/5
f 321/3/5 319/3/5 320/3/5
f 324/8/5 323/8/5 322/8/5
f 325/8/5 323/8/5 324/8/5
f 328/8/5 327/8/5 326/8/5
f 329/8/5 327/8/5 328/8/5
f 330/8/6 331/8/6 332/8/6
f 332/8/6 331/8/6 333/8/6
f 334/8/6 335/8/6 336/8/6
f 336/8/6 335/8/6 337/8/6
f 338/3/6 339/3/6 340/3/6
f 340/3/6 339/3/6 341/3/6
f 342/3/6 343/3/6 344/3/6
f 344/3/6 343/3/6 345/3/6
f 346/4/6 347/4/6 348/4/6
f 348/4/6 347/4/6 349/4/6
f 348/5/6 349/5/6 350/5/6
f 350/5/6 349/5/6 351/5/6
f 350/4/6 351/4/6 352/4/6
f 352/4/6 351/4/6 353/4/6
f 352/5/6 353/5/6 354/5/6
f 354/5/6 353/5/6 355/5/6
f 354/4/6 355/4/6 356/4/6
f 356/4/6 355/4/6 357/4/6
f 356/5/6 357/5/6 358/5/6
f 358/5/6 357/5/6 359/5/6
f 358/4/6 359/4/6 360/4/6
f 360/4/6 359/4/6 361/4/6
f 360/5/6 361/5/6 362/5/6
f 362/5/6 361/5/6 363/5/6
f 362/4/6 363/4/6 364/4/6
f 364/4/6 363/4/6 365/4/6
f 366/3/6 367/3/6 368/3/6
f 368/3/6 367/3/6 369/3/6
f 370/2/6 371/2/6 372/2/6
f 372/2/6 371/2/6 373/2/6
f 373/2/6 371/2/6 374/2/6
f 374/2/6 371/2/6 375/2/6
f 375/2/6 371/2/6 376/2/6
f 370/2/6 372/2/6 377/2/6
f 370/2/6 377/2/6 378/2/6
f 376/2/6 371/2/6 379/2/6
f 370/2/6 378/2/6 380/2/6
f 379/2/6 371/2/6 381/2/6
f 370/2/6 380/2/6 382/2/6
f 381/2/6 371/2/6 385/2/6
f 383/2/6 384/2/6 386/2/6
f 384/2/6 385/2/6 386/2/6
f 370/2/6 382/2/6 386/2/6
f 382/2/6 383/2/6 386/2/6
f 385/2/6 371/2/6 387/2/6
f 386/2/6 385/2/6 387/2/6
f 388/7/6 389/7/6 392/7/6
f 389/6/6 390/6/6 393/6/6
f 392/7/6 389/7/6 393/7/6
f 390/7/6 391/7/6 394/7/6
f 393/6/6 390/6/6 394/6/6
f 392/6/6 393/6/6 395/6/6
f 393/7/6 394/7/6 396/7/6
f 395/6/6 393/6/6 396/6/6
f 395/7/6 396/7/6 397/7/6
f 396/7/6 394/7/6 398/7/6
f 397/7/6 396/7/6 398/7/6
f 397/6/6 398/6/6 399/6/6
f 398/7/6 394/7/6 400/7/6
f 399/6/6 398/6/6 400/6/6
f 399/7/6 400/7/6 401/7/6
f 400/7/6 394/7/6 402/7/6
f 401/7/6 400/7/6 402/7/6
f 394/7/6 391/7/6 403/7/6
f 402/7/6 394/7/6 403/7/6
f 403/7/6 391/7/6 404/7/6
f 401/6/6 402/6/6 405/6/6
f 402/7/6 403/7/6 406/7/6
f 405/6/6 402/6/6 406/6/6
f 403/6/6 404/6/6 407/6/6
f 406/7/6 403/7/6 407/7/6
f 407/6/6 404/6/6 408/6/6
